<svg width="25" height="25" viewBox="0 0 25 25" fill="none" xmlns="http://www.w3.org/2000/svg">
<path d="M13.365 8.5C14.1606 8.5 14.9237 8.81607 15.4863 9.37868C16.0489 9.94129 16.365 10.7044 16.365 11.5C16.365 11.7652 16.4703 12.0196 16.6579 12.2071C16.8454 12.3946 17.0998 12.5 17.365 12.5C17.6302 12.5 17.8846 12.3946 18.0721 12.2071C18.2596 12.0196 18.365 11.7652 18.365 11.5C18.365 10.1739 17.8382 8.90215 16.9005 7.96447C15.9628 7.02678 14.6911 6.5 13.365 6.5C13.0998 6.5 12.8454 6.60536 12.6579 6.79289C12.4703 6.98043 12.365 7.23478 12.365 7.5C12.365 7.76522 12.4703 8.01957 12.6579 8.20711C12.8454 8.39464 13.0998 8.5 13.365 8.5Z" fill="#388746"/>
<path d="M13.365 4.5C15.2215 4.5 17.002 5.2375 18.3147 6.55025C19.6275 7.86301 20.365 9.64348 20.365 11.5C20.365 11.7652 20.4703 12.0196 20.6579 12.2071C20.8454 12.3946 21.0998 12.5 21.365 12.5C21.6302 12.5 21.8846 12.3946 22.0721 12.2071C22.2596 12.0196 22.365 11.7652 22.365 11.5C22.365 9.11305 21.4168 6.82387 19.729 5.13604C18.0411 3.44821 15.7519 2.5 13.365 2.5C13.0998 2.5 12.8454 2.60536 12.6579 2.79289C12.4703 2.98043 12.365 3.23478 12.365 3.5C12.365 3.76522 12.4703 4.01957 12.6579 4.20711C12.8454 4.39464 13.0998 4.5 13.365 4.5ZM22.115 16.41C22.06 16.2495 21.965 16.1056 21.8391 15.9919C21.7131 15.8781 21.5603 15.7984 21.395 15.76L15.395 14.39C15.2321 14.3531 15.0626 14.3575 14.9019 14.4029C14.7412 14.4484 14.5944 14.5333 14.475 14.65C14.335 14.78 14.325 14.79 13.675 16.03C11.5177 15.0369 9.78924 13.3014 8.80499 11.14C10.075 10.5 10.085 10.5 10.215 10.35C10.3317 10.2306 10.4166 10.0838 10.4621 9.92308C10.5075 9.76238 10.5119 9.59286 10.475 9.43L9.10499 3.5C9.06664 3.3347 8.98685 3.18187 8.87313 3.05591C8.75942 2.92995 8.61552 2.835 8.45499 2.78C8.22109 2.69782 7.98005 2.63756 7.73499 2.6C7.48217 2.54177 7.22429 2.50828 6.96499 2.5C5.74499 2.5 4.57497 2.98464 3.7123 3.84731C2.84963 4.70998 2.36499 5.88 2.36499 7.1C2.37028 11.1827 3.99448 15.0967 6.88139 17.9836C9.7683 20.8705 13.6823 22.4947 17.765 22.5C18.3691 22.5 18.9672 22.381 19.5253 22.1498C20.0834 21.9187 20.5905 21.5798 21.0177 21.1527C21.4448 20.7255 21.7837 20.2184 22.0148 19.6603C22.246 19.1022 22.365 18.5041 22.365 17.9C22.3644 17.6455 22.3443 17.3914 22.305 17.14C22.2632 16.8916 22.1996 16.6473 22.115 16.41Z" fill="#388746"/>
</svg>
