<svg width="38" height="49" viewBox="0 0 38 49" fill="none" xmlns="http://www.w3.org/2000/svg">
<path d="M1.54137 7.3668L19 0.75L36.4586 7.3668C36.9112 7.53825 37.3013 7.84517 37.5767 8.24657C37.8522 8.64798 37.9998 9.12475 38 9.6132V19.95C38 27.5748 34.7415 34.83 29.0629 39.8508L19 48.75L8.93713 39.8508C6.13009 37.3688 3.8805 34.3092 2.33913 30.8769C0.797764 27.4447 0.000235968 23.7191 0 19.95V9.6132C0.000181497 9.12475 0.147846 8.64798 0.42327 8.24657C0.698693 7.84517 1.08876 7.53825 1.54137 7.3668ZM16.4801 25.3908L13.1219 22.002C12.9028 21.7728 12.6407 21.5899 12.351 21.4642C12.0612 21.3384 11.7496 21.2722 11.4342 21.2694C11.1189 21.2666 10.8061 21.3274 10.5142 21.448C10.2224 21.5687 9.95718 21.7469 9.73419 21.9723C9.51119 22.1976 9.33484 22.4656 9.21542 22.7605C9.09601 23.0555 9.03592 23.3715 9.03866 23.6902C9.0414 24.0088 9.10691 24.3238 9.23138 24.6166C9.35585 24.9094 9.53679 25.1742 9.76363 25.3956L14.801 30.486C15.2464 30.9359 15.8504 31.1887 16.4801 31.1887C17.1099 31.1887 17.7139 30.9359 18.1593 30.486L28.2364 20.3028C28.4632 20.0814 28.6441 19.8166 28.7686 19.5238C28.8931 19.231 28.9586 18.916 28.9613 18.5974C28.9641 18.2787 28.904 17.9627 28.7846 17.6677C28.6652 17.3728 28.4888 17.1048 28.2658 16.8795C28.0428 16.6541 27.7776 16.4759 27.4858 16.3552C27.1939 16.2346 26.8811 16.1738 26.5658 16.1766C26.2504 16.1794 25.9388 16.2456 25.649 16.3714C25.3593 16.4971 25.0972 16.68 24.8781 16.9092L16.4801 25.3956V25.3908Z" fill="#388746"/>
</svg>
