<svg width="48" height="37" viewBox="0 0 48 37" fill="none" xmlns="http://www.w3.org/2000/svg">
<path d="M24.9088 0.174312L46.4711 8.7512C46.9205 8.93001 47.3059 9.23749 47.5782 9.63441C47.8505 10.0313 47.9974 10.4997 48 10.9797C48.0026 11.4597 47.8609 11.9296 47.5929 12.3294C47.3249 12.7292 46.9429 13.0408 46.4955 13.2244L24.9331 22.0743C24.3364 22.3192 23.666 22.3192 23.0693 22.0743L1.50453 13.2268C1.05714 13.0432 0.675076 12.7316 0.407109 12.3318C0.139141 11.932 -0.00257895 11.4621 3.55325e-05 10.9821C0.00265001 10.5021 0.149481 10.0337 0.421788 9.63682C0.694095 9.2399 1.07953 8.93242 1.52889 8.75362L23.0912 0.174312C23.6744 -0.0581041 24.3256 -0.0581041 24.9088 0.174312ZM38.9401 20.2458L46.4711 23.2433C46.9205 23.4221 47.3059 23.7296 47.5782 24.1265C47.8505 24.5234 47.9974 24.9918 48 25.4718C48.0026 25.9518 47.8609 26.4217 47.5929 26.8215C47.3249 27.2213 46.9429 27.5329 46.4955 27.7165L24.9331 36.5663C24.3364 36.8112 23.666 36.8112 23.0693 36.5663L1.50453 27.7189C1.05714 27.5353 0.675076 27.2237 0.407109 26.8239C0.139141 26.4241 -0.00257895 25.9542 3.55325e-05 25.4742C0.00265001 24.9942 0.149481 24.5258 0.421788 24.1289C0.694095 23.732 1.07953 23.4245 1.52889 23.2457L9.05987 20.2507L21.6708 25.4243C23.1623 26.0362 24.8377 26.0362 26.3292 25.4243L38.9401 20.2507V20.2458Z" fill="#388746"/>
</svg>
