<svg width="48" height="48" viewBox="0 0 48 48" fill="none" xmlns="http://www.w3.org/2000/svg">
<path d="M26.4 21.6V9.6C26.4 8.96348 26.1471 8.35303 25.6971 7.90294C25.247 7.45286 24.6365 7.2 24 7.2C23.3635 7.2 22.753 7.45286 22.3029 7.90294C21.8529 8.35303 21.6 8.96348 21.6 9.6V24C21.6 24.6365 21.8529 25.247 22.3029 25.6971C22.753 26.1471 23.3635 26.4 24 26.4H36C36.6365 26.4 37.247 26.1471 37.6971 25.6971C38.1471 25.247 38.4 24.6365 38.4 24C38.4 23.3635 38.1471 22.753 37.6971 22.3029C37.247 21.8529 36.6365 21.6 36 21.6H26.4ZM24 48C10.7448 48 0 37.2552 0 24C0 10.7448 10.7448 0 24 0C37.2552 0 48 10.7448 48 24C48 37.2552 37.2552 48 24 48Z" fill="#388746"/>
</svg>
