<svg width="16" height="17" viewBox="0 0 16 17" fill="none" xmlns="http://www.w3.org/2000/svg">
<path d="M8.62296 2.43872L9.76684 4.74537C9.92282 5.06647 10.3388 5.37446 10.6897 5.43343L12.763 5.78074C14.0889 6.00354 14.4008 6.97339 13.4454 7.93012L11.8336 9.55526C11.5606 9.83049 11.4112 10.3613 11.4956 10.7414L11.9571 12.7531C12.3211 14.3455 11.4826 14.9615 10.0853 14.1293L8.14202 12.9694C7.79106 12.7597 7.21262 12.7597 6.85516 12.9694L4.91187 14.1293C3.52103 14.9615 2.67612 14.3389 3.04008 12.7531L3.50153 10.7414C3.58602 10.3613 3.43654 9.83049 3.16357 9.55526L1.55175 7.93012C0.60285 6.97339 0.908316 6.00354 2.23417 5.78074L4.30744 5.43343C4.6519 5.37446 5.06786 5.06647 5.22384 4.74537L6.36771 2.43872C6.99164 1.18709 8.00553 1.18709 8.62296 2.43872Z" fill="#FFCC00"/>
</svg>
